<svg width="32" height="31" viewBox="0 0 32 31" fill="none" xmlns="http://www.w3.org/2000/svg">
<path fill-rule="evenodd" clip-rule="evenodd" d="M14.7061 0.0177412C14.5914 0.0310966 14.2426 0.0711033 13.9311 0.106698C9.21325 0.645447 4.85431 3.6026 2.46226 7.88737C1.58867 9.4521 0.955304 11.3963 0.686467 13.3384C0.583678 14.0809 0.583678 16.4117 0.686467 17.1542C1.31507 21.6947 3.73824 25.5541 7.52164 28.0402C12.53 31.3313 19.183 31.3213 24.1969 28.0151C31.7437 23.0386 33.3765 12.6907 27.7217 5.67687C25.2825 2.65144 21.9119 0.731959 17.9854 0.132216C17.391 0.0414113 15.17 -0.0360979 14.7061 0.0177412ZM17.8315 1.91958C18.5135 2.02761 19.2296 2.18239 19.351 2.2481C19.397 2.27302 19.7623 3.30711 20.1627 4.54619L20.8907 6.79896L19.9266 8.11602C19.3963 8.84038 18.803 9.65375 18.6081 9.92342L18.2537 10.4138L15.839 10.4131L13.4243 10.4124L12.1722 8.67755C11.4836 7.72335 10.8982 6.89782 10.8714 6.84296C10.8387 6.77595 11.0608 6.01296 11.5503 4.51083C11.9505 3.28303 12.2863 2.26861 12.2965 2.25662C12.3626 2.17929 13.8903 1.89877 14.736 1.80874C15.2271 1.75645 17.2613 1.82925 17.8315 1.91958ZM10.1149 3.12801C10.1147 3.15263 9.90094 3.81665 9.63985 4.60366L9.1652 6.0346L7.61304 6.05052C6.70535 6.05982 6.06089 6.04378 6.06089 6.01195C6.06089 5.93813 6.94569 5.10902 7.47168 4.69006C8.06081 4.22077 8.79929 3.73663 9.4648 3.38337C10.0361 3.08007 10.1155 3.04895 10.1149 3.12801ZM22.2179 3.38587C23.3097 3.9654 24.5537 4.88896 25.3765 5.73095L25.7024 6.06441H24.1166H22.5308L22.3749 5.57253C22.2892 5.30202 22.0742 4.63127 21.897 4.08197C21.7199 3.53266 21.5924 3.08383 21.6136 3.08442C21.6348 3.08508 21.9067 3.22072 22.2179 3.38587ZM10.6554 9.62173C11.3585 10.5945 11.9422 11.425 11.9525 11.4673C11.9734 11.5533 10.5535 15.9677 10.486 16.0269C10.3976 16.1042 6.28436 17.3997 6.21347 17.3725C6.11652 17.3353 2.60273 14.7847 2.47395 14.658C2.38642 14.572 2.38153 14.4875 2.43209 13.9346C2.51533 13.0239 2.74851 11.935 3.06337 10.987C3.32667 10.1942 4.00279 8.74069 4.38938 8.13629L4.57057 7.85309H6.97383H9.37709L10.6554 9.62173ZM27.2887 8.13629C27.6319 8.67224 28.3559 10.2094 28.5918 10.9029C28.9471 11.9476 29.1494 12.9457 29.2807 14.302L29.3135 14.6396L27.3967 16.0261C26.3424 16.7886 25.4503 17.4123 25.4143 17.412C25.3191 17.4112 21.2428 16.0761 21.192 16.029C21.1438 15.9845 19.7144 11.6051 19.7144 11.5021C19.7144 11.4464 20.4393 10.4354 22.0207 8.28535L22.3387 7.85309H24.723H27.1074L27.2887 8.13629ZM18.6164 13.9793C18.9344 14.9549 19.2401 15.9011 19.2958 16.082L19.397 16.4109L17.6719 17.662C16.7232 18.3501 15.9098 18.9216 15.8644 18.9321C15.8191 18.9426 14.9947 18.3782 14.0324 17.6781C12.3878 16.4815 12.2855 16.3963 12.3285 16.2579C12.3536 16.177 12.6593 15.2321 13.0076 14.1582L13.6411 12.2055H15.8396H18.0381L18.6164 13.9793ZM3.81015 17.8676C4.51614 18.3784 4.98709 18.7584 4.9862 18.8163C4.98542 18.8695 4.77227 19.5566 4.51262 20.3431L4.04053 21.7731L3.68279 21.0288C3.11429 19.8457 2.65758 18.3599 2.51056 17.2152C2.47562 16.9431 2.48229 16.8993 2.55062 16.9521C2.5957 16.987 3.16253 17.3989 3.81015 17.8676ZM29.1622 17.2585C29.0038 18.3939 28.5338 19.918 28.0039 21.0147C27.8098 21.4165 27.6383 21.7451 27.6226 21.7451C27.5956 21.7451 26.7205 19.0797 26.6799 18.8736C26.6662 18.8039 27.0232 18.5091 27.8827 17.88C28.555 17.388 29.1267 16.9831 29.1533 16.9803C29.1799 16.9776 29.1839 17.1027 29.1622 17.2585ZM13.0142 19.1546L14.9446 20.5588L14.9431 22.8065L14.9415 25.0542L13.024 26.4465L11.1064 27.8388L10.8765 27.7699C10.4669 27.6472 9.02878 26.8933 8.38617 26.4645C8.04185 26.2347 7.50173 25.8309 7.18591 25.5673C6.57877 25.0604 5.49204 23.9498 5.39121 23.7332C5.34334 23.6303 5.44541 23.2546 5.90134 21.8551C6.21484 20.8928 6.54073 19.8854 6.62558 19.6164L6.77982 19.1272L8.46243 18.5843C9.38789 18.2857 10.3328 17.9781 10.5624 17.9006C10.7919 17.8232 11.0032 17.7577 11.0318 17.7551C11.0605 17.7526 11.9525 18.3823 13.0142 19.1546ZM22.7295 18.4395C23.8899 18.8185 24.8532 19.1512 24.8703 19.1789C24.8874 19.2066 25.2238 20.2286 25.618 21.45C26.2623 23.4466 26.3263 23.6834 26.2523 23.796C26.0741 24.0669 25.0308 25.1176 24.4893 25.5713C24.175 25.8347 23.6361 26.2377 23.2918 26.4669C22.5689 26.9481 20.9271 27.781 20.6829 27.7904C20.5558 27.7953 20.075 27.4761 18.6269 26.4255L16.7368 25.0542L16.735 22.8066L16.7333 20.559L18.6561 19.1572C19.7137 18.3862 20.5881 17.7542 20.5994 17.7529C20.6107 17.7516 21.5692 18.0605 22.7295 18.4395ZM17.1457 27.5606C17.9676 28.1575 18.3307 28.4543 18.2755 28.484C18.0804 28.5889 16.8546 28.691 15.8092 28.6894C14.7845 28.6878 13.7347 28.598 13.4317 28.4859C13.3384 28.4513 13.5541 28.2706 14.5628 27.5383C15.2483 27.0406 15.8374 26.6441 15.8718 26.6572C15.9062 26.6702 16.4795 27.0767 17.1457 27.5606Z" fill="black"/>
</svg>
