<svg width="35" height="25" viewBox="0 0 35 25" fill="none" xmlns="http://www.w3.org/2000/svg">
<path fill-rule="evenodd" clip-rule="evenodd" d="M0 12.5352V24.5001H17.1118H34.2236V12.5352V0.570312H17.1118H0V12.5352ZM16.1092 4.97206V7.36845L15.6776 7.48529C14.0482 7.92632 12.6914 9.21953 12.1317 10.8649C11.1739 13.6811 12.8266 16.8134 15.6776 17.5851L16.1092 17.702V20.0984V22.4948H9.05723H2.00529V20.3893V18.2837H4.94638H7.88748V12.5352V6.78671H4.94638H2.00529V4.68116V2.5756H9.05723H16.1092V4.97206ZM32.2183 4.68116V6.78671H29.2772H26.3362V12.5352V18.2837H29.2772H32.2183V20.3893V22.4948H25.1664H18.1145V20.0984V17.702L18.5505 17.5839C20.1726 17.1448 21.5338 15.8462 22.0919 14.2056C23.0497 11.3893 21.397 8.25699 18.546 7.48529L18.1145 7.36845V4.97206V2.5756H25.1664H32.2183V4.68116ZM5.88219 12.5352V16.2784H3.94374H2.00529V12.5352V8.79201H3.94374H5.88219V12.5352ZM32.2183 12.5352V16.2784H30.2799H28.3414V12.5352V8.79201H30.2799H32.2183V12.5352ZM16.1092 12.5397V15.619L15.9588 15.5742C15.6857 15.4927 15.2136 15.1894 14.893 14.8896C14.2191 14.2592 13.8885 13.4843 13.8885 12.5352C13.8885 11.5614 14.2271 10.7915 14.9433 10.137C15.2563 9.85093 15.8982 9.46044 16.0554 9.46044C16.085 9.46044 16.1092 10.8461 16.1092 12.5397ZM18.715 9.71337C19.1196 9.94572 19.6011 10.4057 19.8567 10.804C20.5009 11.808 20.5009 13.2625 19.8567 14.2664C19.5033 14.8171 18.7625 15.4256 18.2649 15.5742L18.1145 15.619V12.5352V9.45141L18.2649 9.49626C18.3476 9.521 18.5501 9.61865 18.715 9.71337Z" fill="black"/>
</svg>
