<svg width="16" height="24" viewBox="0 0 16 24" fill="none" xmlns="http://www.w3.org/2000/svg">
<path fill-rule="evenodd" clip-rule="evenodd" d="M2 5.99993C2.00011 4.84527 2.33338 3.71517 2.95984 2.74522C3.5863 1.77527 4.47932 1.00669 5.53176 0.531692C6.58419 0.0566946 7.75133 -0.104539 8.89313 0.0673373C10.0349 0.239214 11.1029 0.7369 11.9688 1.50068C12.8348 2.26445 13.462 3.26188 13.7751 4.37326C14.0883 5.48465 14.0741 6.66279 13.7343 7.76631C13.3945 8.86984 12.7434 9.85187 11.8593 10.5946C10.9752 11.3373 9.89561 11.8091 8.75 11.9534V20.2499C8.75 20.4488 8.67098 20.6396 8.53033 20.7803C8.38968 20.9209 8.19891 20.9999 8 20.9999C7.80109 20.9999 7.61032 20.9209 7.46967 20.7803C7.32902 20.6396 7.25 20.4488 7.25 20.2499V11.9549C5.79945 11.7722 4.46553 11.0661 3.49882 9.96928C2.53211 8.87248 1.99913 7.46045 2 5.99843V5.99993ZM5.7395 18.8609C5.77203 19.057 5.72536 19.2581 5.60977 19.4198C5.49416 19.5815 5.31909 19.6907 5.123 19.7234C4.055 19.9004 3.203 20.1659 2.6405 20.4629C2.43387 20.5623 2.24607 20.6968 2.0855 20.8604C2.0492 20.9 2.02025 20.9457 2 20.9954V20.9999L2.003 21.0119C2.0089 21.0294 2.01697 21.046 2.027 21.0614C2.0862 21.1482 2.15975 21.2243 2.2445 21.2864C2.492 21.4814 2.897 21.6914 3.464 21.8789C4.5905 22.2539 6.194 22.4999 8 22.4999C9.806 22.4999 11.4095 22.2554 12.536 21.8789C13.103 21.6899 13.508 21.4814 13.7555 21.2864C13.8407 21.2244 13.9148 21.1483 13.9745 21.0614C13.984 21.0459 13.9916 21.0293 13.997 21.0119L14 20.9999V20.9939C13.9798 20.9442 13.9508 20.8985 13.9145 20.8589C13.7538 20.6958 13.566 20.5618 13.3595 20.4629C12.7955 20.1659 11.945 19.9004 10.877 19.7234C10.7775 19.71 10.6817 19.6766 10.5954 19.6255C10.509 19.5743 10.4338 19.5063 10.3742 19.4255C10.3146 19.3447 10.2718 19.2528 10.2484 19.1552C10.225 19.0575 10.2214 18.9562 10.2379 18.8572C10.2543 18.7581 10.2905 18.6634 10.3443 18.5786C10.398 18.4938 10.4683 18.4207 10.5508 18.3636C10.6334 18.3064 10.7265 18.2664 10.8248 18.246C10.9231 18.2255 11.0245 18.225 11.123 18.2444C12.278 18.4349 13.301 18.7364 14.0585 19.1354C14.75 19.4999 15.5 20.0999 15.5 20.9999C15.5 21.6389 15.11 22.1279 14.684 22.4654C14.249 22.8074 13.664 23.0849 13.01 23.3024C11.693 23.7419 9.9215 23.9999 8 23.9999C6.0785 23.9999 4.307 23.7419 2.99 23.3024C2.336 23.0849 1.751 22.8074 1.316 22.4654C0.89 22.1279 0.5 21.6389 0.5 20.9999C0.5 20.1014 1.25 19.4999 1.9415 19.1354C2.699 18.7364 3.722 18.4349 4.877 18.2444C5.07312 18.2119 5.27412 18.2586 5.43585 18.3742C5.59758 18.4898 5.70679 18.6648 5.7395 18.8609Z" fill="white"/>
</svg>
