<svg width="28" height="28" viewBox="0 0 28 28" fill="none" xmlns="http://www.w3.org/2000/svg">
<path fill-rule="evenodd" clip-rule="evenodd" d="M6.04812 7.42717C4.72181 11.4305 3.28145 15.7757 2.84729 17.0832L2.05787 19.4605L1.14078 19.4751L0.223633 19.4897V21.8924V24.2951H3.42895H6.63426V25.8978V27.5005H17.105H27.5757V25.0978V22.695L26.6585 22.6804L25.7414 22.6658L24.9253 20.2084C24.4764 18.8568 23.036 14.5116 21.7244 10.5524L19.3395 3.35375H17.1048H14.8701L14.6448 4.03488C14.5209 4.40953 14.4067 4.73824 14.391 4.76543C14.3754 4.79267 14.0173 3.76494 13.5952 2.48164L12.8279 0.148438H10.6437H8.45948L6.04812 7.42717ZM12.6013 4.58246L13.5239 7.38711L13.3868 7.80113L13.2498 8.21515H10.3658H7.4818L7.51882 8.09495C7.63657 7.71229 9.58855 1.82412 9.60896 1.79004C9.62253 1.76734 10.0938 1.75532 10.6561 1.76333L11.6787 1.77781L12.6013 4.58246ZM19.2503 8.16173C19.8298 9.90996 20.3054 11.3584 20.3071 11.3804C20.3089 11.4024 18.8663 11.4205 17.1014 11.4205H13.8924L13.9295 11.3003C14.0471 10.9179 15.9992 5.02944 16.0195 4.99541C16.0331 4.97276 16.5285 4.96074 17.1203 4.9687L18.1965 4.98312L19.2503 8.16173ZM12.7018 9.91129C12.6855 9.96274 12.5676 10.3173 12.4398 10.6993L12.2075 11.3938L9.31401 11.4076C7.72263 11.4152 6.42058 11.4142 6.42058 11.4053C6.42058 11.3895 6.87829 10.0136 6.92648 9.88458C6.94603 9.83228 7.57839 9.81781 9.8415 9.81781C12.5697 9.81781 12.7299 9.82304 12.7018 9.91129ZM11.6546 13.0365C11.6539 13.0438 11.1764 14.4922 10.5933 16.2551L9.53326 19.4605L6.63549 19.4743C4.31094 19.4854 3.74286 19.4747 3.76374 19.4203C3.77806 19.3829 4.24037 17.9824 4.7911 16.308C5.34183 14.6335 5.81301 13.2095 5.83806 13.1433L5.88369 13.0231H8.7698C10.3572 13.0231 11.6553 13.0292 11.6546 13.0365ZM21.0941 13.7443C21.2219 14.1263 21.3398 14.4809 21.3562 14.5323C21.3843 14.6208 21.1579 14.6258 17.1085 14.6258C14.756 14.6258 12.8312 14.6188 12.8312 14.6102C12.8312 14.5946 13.2898 13.2165 13.3373 13.0895C13.3571 13.0363 14.1404 13.0253 17.1121 13.0361L20.8618 13.0498L21.0941 13.7443ZM22.9914 19.4605C23.5724 21.2234 24.0483 22.6718 24.0488 22.6791C24.0493 22.6865 20.9221 22.6925 17.0992 22.6925C11.5287 22.6925 10.1538 22.6791 10.1745 22.6251C10.1887 22.5881 10.651 21.1878 11.2017 19.5133C11.7525 17.8388 12.2236 16.4146 12.2488 16.3484L12.2946 16.2278L17.1148 16.2415L21.935 16.2551L22.9914 19.4605ZM8.96228 21.1833C8.94594 21.2347 8.82804 21.5893 8.70025 21.9713L8.46792 22.6658L5.1471 22.6796L1.82629 22.6933V21.8916V21.0898H5.40914C8.7971 21.0898 8.99044 21.0949 8.96228 21.1833ZM25.973 25.0965V25.8978H17.105H8.23692V25.0965V24.2951H17.105H25.973V25.0965Z" fill="black"/>
</svg>
