<svg width="31" height="24" viewBox="0 0 31 24" fill="none" xmlns="http://www.w3.org/2000/svg">
<path fill-rule="evenodd" clip-rule="evenodd" d="M0.411169 3.73944C0.239576 5.45287 0.09994 7.06267 0.100834 7.31678L0.102504 7.77886H1.44401H2.78552V9.56753V11.3562H1.44401H0.102504V17.6166V23.8769H0.996841H1.89118V20.2996V16.7222H3.67985H5.46853V20.2996V23.8769H6.36286H7.2572V17.6166V11.3562H5.91569H4.57419V9.56753V7.77886H5.91569H7.2572L7.25887 7.31678C7.25976 7.06267 7.12013 5.45287 6.94853 3.73944L6.63653 0.624164H3.67985H0.723174L0.411169 3.73944ZM15.4255 0.717175C14.1085 1.00104 12.9916 2.1288 12.7129 3.45623C12.6551 3.73157 12.625 4.23377 12.6242 4.93189L12.6232 5.99018L12.4593 5.9912C12.1123 5.9934 11.4419 6.17668 11.0134 6.38644C10.3973 6.68813 9.74382 7.34159 9.44213 7.95773C9.0318 8.79578 9.04808 8.44228 9.04689 16.5583L9.04587 23.8769H9.94021H10.8345V22.9826V22.0882H19.8375H28.8405V22.9826V23.8769H29.7349H30.6292L30.6282 16.5583C30.627 8.44228 30.6433 8.79578 30.233 7.95773C29.9313 7.34159 29.2778 6.68813 28.6617 6.38644C28.2332 6.17668 27.5628 5.9934 27.2158 5.9912L27.0519 5.99018L27.0508 4.93189C27.0501 4.23377 27.02 3.73157 26.9622 3.45623C26.6804 2.11425 25.5618 0.995612 24.2198 0.713836C23.6212 0.588211 16.0106 0.591073 15.4255 0.717175ZM5.18174 3.99283C5.27022 4.84543 5.34409 5.64366 5.34594 5.7666L5.34928 5.99018H3.67985H2.01042L2.00905 5.85603C2.0072 5.67222 2.31241 2.58044 2.34174 2.48623C2.36005 2.42739 2.66108 2.41415 3.69315 2.42661L5.021 2.44265L5.18174 3.99283ZM24.1989 2.57078C24.5532 2.73456 24.9415 3.12282 25.1052 3.47716C25.2318 3.75094 25.2336 3.80407 25.2499 7.79579L25.2664 11.8372L25.0215 11.7123C24.8868 11.6436 24.5732 11.5354 24.3247 11.4718C23.8994 11.363 23.6349 11.3562 19.8375 11.3562C16.0402 11.3562 15.7756 11.363 15.3504 11.4718C15.1018 11.5354 14.789 11.6432 14.6552 11.7115L14.4119 11.8356V7.90878C14.4119 3.64816 14.4109 3.66258 14.7425 3.18399C14.9526 2.88087 15.2653 2.64757 15.6337 2.51914C15.9079 2.42357 16.2582 2.41618 19.927 2.42888C23.8738 2.44247 23.925 2.4442 24.1989 2.57078ZM12.6232 13.1449V18.5109H19.8375H27.0519V13.1372V7.7636L27.3028 7.80372C27.8921 7.89798 28.4346 8.30664 28.6826 8.84318C28.8104 9.11971 28.8108 9.13348 28.8268 14.71L28.8429 20.2996H19.8387H10.8345V14.8238C10.8345 8.87692 10.826 9.03952 11.1652 8.55001C11.2532 8.42308 11.4225 8.24499 11.5414 8.15424C11.7712 7.97901 12.266 7.78405 12.4891 7.78083L12.6232 7.77886V13.1449ZM5.46853 14.0392V14.9336H3.67985H1.89118V14.0392V13.1449H3.67985H5.46853V14.0392ZM24.1989 13.3028C24.5532 13.4666 24.9415 13.8549 25.1052 14.2092C25.2191 14.4554 25.2356 14.6111 25.2529 15.6043L25.2725 16.7222H19.8422H14.4119V15.7181C14.4119 14.6187 14.4682 14.3119 14.7425 13.916C14.9526 13.6129 15.2653 13.3796 15.6337 13.2512C15.9079 13.1556 16.2582 13.1482 19.927 13.1609C23.8738 13.1745 23.925 13.1762 24.1989 13.3028Z" fill="black"/>
</svg>
